HIERARCHY
ROOT Hips
{
 OFFSET 0.000000 0.000000 0.000000
 CHANNELS 6 Xposition Yposition Zposition Yrotation Xrotation Zrotation
 JOINT Chest
 {
  OFFSET 0.000000 9.585900 0.002600
  CHANNELS 3 Yrotation Xrotation Zrotation
  JOINT Chest2
  {
   OFFSET 0.000000 9.601200 -0.005300
   CHANNELS 3 Yrotation Xrotation Zrotation
   JOINT Chest3
   {
    OFFSET 0.000000 9.561800 0.000000
    CHANNELS 3 Yrotation Xrotation Zrotation
    JOINT Chest4
    {
     OFFSET 0.000000 9.552100 0.000000
     CHANNELS 3 Yrotation Xrotation Zrotation
     JOINT Neck
     {
      OFFSET 0.000000 14.453000 0.000000
      CHANNELS 3 Yrotation Xrotation Zrotation
      JOINT Head
      {
       OFFSET 0.000000 8.936500 -0.011300
       CHANNELS 3 Yrotation Xrotation Zrotation
       End Site
       {
        OFFSET 0.000000 17.073600 -0.006000
       }
      }
     }
     JOINT RightCollar
     {
      OFFSET -2.921100 9.558500 0.000000
      CHANNELS 3 Yrotation Xrotation Zrotation
      JOINT RightShoulder
      {
       OFFSET -13.519700 0.000000 0.000000
       CHANNELS 3 Yrotation Xrotation Zrotation
       JOINT RightElbow
       {
        OFFSET 0.000000 -29.696600 0.000000
        CHANNELS 3 Yrotation Xrotation Zrotation
        JOINT RightWrist
        {
         OFFSET 0.000000 -24.004700 0.000000
         CHANNELS 3 Yrotation Xrotation Zrotation
         End Site
         {
          OFFSET 0.000000 -17.728500 0.000000
         }
        }
       }
      }
     }
     JOINT LeftCollar
     {
      OFFSET 2.921100 9.558500 0.000000
      CHANNELS 3 Yrotation Xrotation Zrotation
      JOINT LeftShoulder
      {
       OFFSET 13.519700 0.000000 0.000000
       CHANNELS 3 Yrotation Xrotation Zrotation
       JOINT LeftElbow
       {
        OFFSET 0.000000 -29.696600 0.000000
        CHANNELS 3 Yrotation Xrotation Zrotation
        JOINT LeftWrist
        {
         OFFSET 0.000000 -24.004700 0.000000
         CHANNELS 3 Yrotation Xrotation Zrotation
         End Site
         {
          OFFSET 0.000000 -17.728500 0.000000
         }
        }
       }
      }
     }
    }
   }
  }
 }
 JOINT RightHip
 {
  OFFSET -7.771700 -0.012900 -0.001300
  CHANNELS 3 Yrotation Xrotation Zrotation
  JOINT RightKnee
  {
   OFFSET 0.000000 -40.869800 0.001200
   CHANNELS 3 Yrotation Xrotation Zrotation
   JOINT RightAnkle
   {
    OFFSET 0.000000 -39.717900 0.002100
    CHANNELS 3 Yrotation Xrotation Zrotation
    JOINT RightToe
    {
     OFFSET 0.000000 -4.965400 11.033500
     CHANNELS 3 Yrotation Xrotation Zrotation
     End Site
     {
      OFFSET 0.000000 -1.423100 5.872300
     }
    }
   }
  }
 }
 JOINT LeftHip
 {
  OFFSET 7.771700 -0.012900 -0.001300
  CHANNELS 3 Yrotation Xrotation Zrotation
  JOINT LeftKnee
  {
   OFFSET 0.000000 -40.869800 0.001200
   CHANNELS 3 Yrotation Xrotation Zrotation
   JOINT LeftAnkle
   {
    OFFSET 0.000000 -39.717900 0.002100
    CHANNELS 3 Yrotation Xrotation Zrotation
    JOINT LeftToe
    {
     OFFSET 0.000000 -4.965400 11.033500
     CHANNELS 3 Yrotation Xrotation Zrotation
     End Site
     {
      OFFSET 0.000000 -1.423100 5.872300
     }
    }
   }
  }
 }
}
MOTION
Frames: 9
Frame Time: 0.008333
0.000000 85.388000 0.000000 0.000000 -5.767877 0.000000 0.000000 11.653817 0.000000 0.000000 -5.885947 0.000000 0.000000 -0.000000 0.000000 0.000000 -0.000000 0.000000 0.000000 12.528835 0.000000 0.000000 0.711642 0.000000 0.000000 -0.000000 0.000000 0.000000 0.000000 -90.000000 0.000000 -2.309062 0.000000 0.000000 2.309062 0.000000 0.000000 -0.000000 0.000000 0.000000 -0.000000 90.000000 0.000000 -2.309062 0.000000 0.000000 2.309062 0.000000 0.000000 8.520406 0.000000 0.000000 1.905762 0.000000 -0.000000 -4.658285 0.000000 0.000000 -0.000000 0.000000 0.000000 8.520406 0.000000 0.000000 1.905762 0.000000 -0.000000 -4.658285 0.000000 0.000000 -0.000000 0.000000
8.961702 50.026318 46.497124 172.619450 -33.086228 -6.439595 7.477263 21.611368 7.667856 0.916931 3.254535 0.774564 1.502694 5.243389 1.276882 5.989300 18.317698 5.266288 2.044499 18.879652 1.997826 3.113648 -0.749466 3.013397 1.370662 -4.079147 -4.060369 14.451271 -25.544852 -11.802114 129.096100 -43.274414 -145.006780 -0.491734 -17.268533 -13.504678 -15.487466 -0.407597 0.394959 -6.245937 -20.777486 5.578645 -82.560769 -81.446572 96.392021 17.105964 -3.129449 -16.824150 1.410342 -48.108290 10.792417 -115.604481 84.712387 -103.662144 -2.748789 -11.305992 -3.506997 -0.049674 0.878660 -0.003148 -9.150198 -51.447702 15.848011 -151.789416 80.572638 -158.526266 2.192799 -15.091361 7.107900 -0.593829 -0.816026 -0.284058
8.961644 50.025971 46.484840 172.646426 -33.045819 -6.434895 7.482215 21.689013 7.693107 0.918037 3.264851 0.779168 1.504416 5.259105 1.284154 5.988857 18.340304 5.285030 1.955876 18.820690 1.936487 2.970197 -0.857847 2.928458 1.270682 -3.980342 -4.040844 14.299197 -24.790904 -11.571815 128.970541 -43.440598 -144.794794 -0.328115 -17.278834 -13.475106 -15.387107 -0.376254 0.398127 -6.271518 -20.477008 5.583337 -83.171045 -81.741960 96.825192 16.806851 -3.135157 -16.660344 1.411724 -48.149981 10.790292 -115.790876 84.697625 -103.867165 -2.769544 -11.325506 -3.490333 -0.024750 0.929143 -0.009501 -9.190217 -51.472616 15.866245 -151.642548 80.562018 -158.422282 2.188412 -15.101919 7.128191 -0.586526 -0.808990 -0.276791
8.961977 50.027552 46.467878 172.663521 -33.023239 -6.425392 7.496947 21.767704 7.717418 0.905311 3.223551 0.765366 1.520869 5.326945 1.310253 5.987811 18.363857 5.302866 1.886738 18.722804 1.871803 2.814584 -0.911043 2.855152 1.167659 -3.887787 -4.024945 14.136532 -23.995572 -11.318859 128.826156 -43.697573 -144.530998 -0.153637 -17.267495 -13.343980 -15.298717 -0.352632 0.411206 -6.280935 -20.147519 5.576101 -83.992453 -81.962768 97.494639 16.539131 -3.175304 -16.515553 1.420063 -48.172330 10.778647 -116.048511 84.688492 -104.142789 -2.738319 -11.337646 -3.495067 -0.077693 0.933920 0.002216 -9.199269 -51.481414 15.866186 -151.547430 80.549703 -158.357630 2.178303 -15.104188 7.147817 -0.575644 -0.815295 -0.269684
8.962661 50.025341 46.456161 172.671698 -32.955467 -6.421625 7.495704 21.747376 7.721990 0.904906 3.231500 0.768740 1.536548 5.389625 1.333414 5.985216 18.388715 5.319383 1.793990 18.694116 1.812726 2.686898 -1.028803 2.760731 1.064128 -3.806216 -4.014042 13.945866 -23.168465 -11.035245 128.674722 -44.040051 -144.221249 -0.005922 -17.241450 -13.101617 -15.221591 -0.342907 0.429492 -6.274919 -19.784810 5.562727 -85.117963 -82.142110 98.496975 16.297837 -3.219348 -16.408817 1.419531 -48.241130 10.780777 -116.177910 84.672296 -104.279236 -2.738989 -11.354482 -3.482159 -0.062955 0.950614 -0.011944 -9.218361 -51.540871 15.888652 -151.495455 80.539333 -158.328804 2.156599 -15.109413 7.170356 -0.552111 -0.812599 -0.263796
8.962674 50.026222 46.439323 172.721153 -32.916550 -6.439559 7.489636 21.817678 7.759061 0.920023 3.294564 0.791273 1.513159 5.332171 1.313536 5.978700 18.413554 5.335188 1.703107 18.661950 1.747706 2.565251 -1.149684 2.661475 0.969687 -3.734162 -4.014624 13.722913 -22.321192 -10.720511 128.514174 -44.467532 -143.866532 0.093379 -17.202544 -12.736603 -15.151837 -0.348872 0.446680 -6.249303 -19.394499 5.548089 -86.572377 -82.304823 99.845624 16.080339 -3.241349 -16.343645 1.401665 -48.275090 10.801337 -116.286911 84.630941 -104.412060 -2.739840 -11.389483 -3.471964 -0.024040 0.975094 -0.001209 -9.240134 -51.574956 15.884315 -151.486386 80.526047 -158.329016 2.135723 -15.102210 7.190017 -0.557952 -0.822885 -0.255958
8.961098 50.024726 46.426778 172.779745 -32.847759 -6.465764 7.467285 21.857053 7.791529 0.919493 3.307057 0.796546 1.506518 5.323388 1.311600 5.969595 18.436343 5.351242 1.625308 18.604841 1.680422 2.443545 -1.254847 2.562399 0.886744 -3.665467 -4.026966 13.475242 -21.460911 -10.380236 128.321386 -44.975640 -143.462051 0.145940 -17.144874 -12.244171 -15.091344 -0.366545 0.460668 -6.198423 -18.987944 5.535383 -88.305996 -82.468770 101.472536 15.882914 -3.240212 -16.315660 1.366491 -48.335681 10.807714 -116.454741 84.611039 -104.604970 -2.676794 -11.422822 -3.487744 -0.072168 0.996108 0.022657 -9.233590 -51.648915 15.858751 -151.480132 80.512833 -158.305132 2.112126 -15.100498 7.212103 -0.546089 -0.812447 -0.245661
8.959999 50.023021 46.416705 172.812376 -32.772439 -6.493777 7.447275 21.824498 7.810254 0.929673 3.356178 0.810827 1.505492 5.336638 1.318335 5.961125 18.456310 5.368062 1.572075 18.517141 1.617722 2.310772 -1.338187 2.472900 0.807903 -3.599778 -4.043737 13.199468 -20.582333 -10.012353 128.079854 -45.543313 -143.007035 0.168699 -17.059752 -11.625937 -15.042368 -0.389351 0.471564 -6.118727 -18.577506 5.527515 -90.304742 -82.648335 103.347304 15.703934 -3.220534 -16.317823 1.344755 -48.405151 10.827410 -116.464885 84.591618 -104.614428 -2.682747 -11.446763 -3.482076 -0.084197 1.012165 0.019213 -9.284393 -51.717243 15.890155 -151.528592 80.508517 -158.365409 2.108313 -15.109547 7.232435 -0.544930 -0.800157 -0.249465
8.956599 50.022629 46.406580 172.842424 -32.705579 -6.518481 7.429554 21.799781 7.826731 0.942231 3.402034 0.821308 1.504608 5.348832 1.325075 5.953588 18.474443 5.385376 1.520402 18.432294 1.561063 2.193312 -1.432726 2.385450 0.730316 -3.543630 -4.062709 12.883104 -19.670968 -9.605130 127.775898 -46.132927 -142.497461 0.169671 -16.945145 -10.886327 -14.999814 -0.412816 0.476451 -6.010438 -18.172840 5.530027 -92.590829 -82.856874 105.480691 15.544416 -3.185397 -16.337194 1.328134 -48.466417 10.837017 -116.504905 84.578275 -104.651516 -2.689195 -11.464355 -3.472418 -0.114018 1.018498 0.013112 -9.293869 -51.784125 15.894073 -151.578446 80.504093 -158.411213 2.103846 -15.107722 7.250382 -0.556640 -0.801105 -0.245311
